<svg width="14" height="14" viewBox="0 0 14 14" fill="none" xmlns="http://www.w3.org/2000/svg">
<path d="M0.600002 4.60001V11.5333C0.600002 11.9067 0.600002 12.0933 0.672662 12.2359C0.736582 12.3613 0.838496 12.4635 0.963936 12.5274C1.1064 12.6 1.293 12.6 1.66564 12.6H8.60007M7.93334 7.26667V5.26667M7.93334 5.26667V3.26667M7.93334 5.26667H5.93334M7.93334 5.26667H9.93334M3.26667 7.80014V2.73347C3.26667 1.98673 3.26667 1.61309 3.412 1.32787C3.53982 1.07699 3.74365 0.873159 3.99454 0.745333C4.27975 0.600006 4.6534 0.600006 5.40014 0.600006H10.4668C11.2135 0.600006 11.5867 0.600006 11.8719 0.745333C12.1228 0.873159 12.327 1.07699 12.4548 1.32787C12.6001 1.61309 12.6001 1.98647 12.6001 2.73319V7.79987C12.6001 8.54661 12.6001 8.92001 12.4548 9.20521C12.327 9.45607 12.1228 9.66034 11.8719 9.78814C11.587 9.93334 11.2143 9.93334 10.4691 9.93334H5.39794C4.65266 9.93334 4.27947 9.93334 3.99454 9.78814C3.74365 9.66034 3.53982 9.45614 3.412 9.20527C3.26667 8.92007 3.26667 8.54687 3.26667 7.80014Z" stroke="white" stroke-width="1.2" stroke-linecap="round" stroke-linejoin="round"/>
</svg>
